<?xml version="1.0" encoding="UTF-8"?>
<svg width="250px" height="89px" viewBox="0 0 250 89" version="1.1" xmlns="http://www.w3.org/2000/svg" xmlns:xlink="http://www.w3.org/1999/xlink">
    <!-- Generator: Sketch 55.2 (78181) - https://sketchapp.com -->
    <title>Group 2</title>
    <desc>Created with Sketch.</desc>
    <g id="Welcome--oscuro" stroke="none" stroke-width="1" fill="none" fill-rule="evenodd">
        <g id="Group-2">
            <g id="Group-3">
                <rect id="Rectangle" fill="#1A2426" x="0" y="0" width="250" height="89" rx="5"></rect>
                <g id="Group" transform="translate(20.000000, 25.000000)" fill="#FFFFFF">
                    <polygon id="Rectangle-739-Copy" points="37.375 21.5714286 79.78125 21.5714286 79.78125 23.0095238 37.375 23.0095238"></polygon>
                    <polygon id="Rectangle-739-Copy" points="123.625 21.5714286 166.03125 21.5714286 166.03125 23.0095238 123.625 23.0095238"></polygon>
                    <g id="open-virus-icon" fill-rule="nonzero">
                        <path d="M34.5359601,17.746827 C27.5193915,15.4101283 26.6975977,14.024753 27.3464569,10.1351973 C27.7164878,7.91658518 26.4968473,5.85070338 23.8190819,4.16120857 C21.9216478,2.96395225 19.9551592,2.36733566 19.8723832,2.3425263 C19.4643201,2.21982057 19.0350782,2.45152356 18.9128531,2.85868012 C18.7905535,3.26598567 19.0219534,3.69512048 19.4295691,3.8172302 C19.4478395,3.82266889 21.2751004,4.37696802 22.996244,5.462992 C25.1378299,6.81439414 26.0899773,8.30109295 25.8262128,9.88218652 C25.3748973,12.5875984 25.7101773,14.2532524 26.9833612,15.6311774 C28.3385754,17.0979841 30.7879238,18.1215749 34.0486259,19.2075989 C34.1295376,19.2344943 34.2116424,19.2472342 34.2924795,19.2472342 C34.6151566,19.2472342 34.9157601,19.0433207 35.0235181,18.7205756 C35.1578239,18.3172932 34.9396981,17.8813786 34.5359601,17.746827 Z" id="Path"></path>
                        <path d="M34.2925258,0 C32.5928918,0 31.2100515,1.38153177 31.2100515,3.07955748 C31.2100515,4.77758319 32.5928918,6.15911496 34.2925258,6.15911496 C35.9921597,6.15911496 37.375,4.77758319 37.375,3.07955748 C37.3749254,1.38153177 35.9921597,0 34.2925258,0 Z M34.2925258,4.61933622 C33.4426715,4.61933622 32.7512887,3.92860758 32.7512887,3.07955748 C32.7512887,2.23058188 33.4426715,1.53977874 34.2925258,1.53977874 C35.14238,1.53977874 35.8337629,2.23050737 35.8337629,3.07955748 C35.8336883,3.92853308 35.1423055,4.61933622 34.2925258,4.61933622 Z" id="Shape"></path>
                        <path d="M13.4858247,5.38922559 C11.7861908,5.38922559 10.4033505,6.77075736 10.4033505,8.46878307 C10.4033505,10.1668088 11.7861908,11.5483405 13.4858247,11.5483405 C15.1854587,11.5483405 16.568299,10.1668088 16.568299,8.46878307 C16.568299,6.77075736 15.1855333,5.38922559 13.4858247,5.38922559 Z M13.4858247,10.0085618 C12.636045,10.0085618 11.9445876,9.31783317 11.9445876,8.46878307 C11.9445876,7.61980747 12.6359705,6.92900433 13.4858247,6.92900433 C14.335679,6.92900433 15.0270619,7.61973296 15.0270619,8.46878307 C15.0270619,9.31783317 14.335679,10.0085618 13.4858247,10.0085618 Z" id="Shape"></path>
                        <path d="M28.8981959,24.6364598 C27.1985619,24.6364598 25.8157216,26.0179916 25.8157216,27.7160173 C25.8157216,29.414043 27.1985619,30.7955748 28.8981959,30.7955748 C30.5978298,30.7955748 31.9806701,29.414043 31.9806701,27.7160173 C31.9806701,26.0179916 30.5979044,24.6364598 28.8981959,24.6364598 Z M28.8981959,29.2557961 C28.0483416,29.2557961 27.3569588,28.5650674 27.3569588,27.7160173 C27.3569588,26.8669672 28.0483416,26.1762386 28.8981959,26.1762386 C29.7480501,26.1762386 30.439433,26.8669672 30.439433,27.7160173 C30.439433,28.5650674 29.7480501,29.2557961 28.8981959,29.2557961 Z" id="Shape"></path>
                        <path d="M24.9356786,32.6856679 C24.7174968,32.322155 24.2465273,32.2037588 23.882792,32.4221935 C23.4669991,32.6717695 23.0412551,32.9430478 22.5904848,33.2303055 C18.8270355,35.6284797 14.1432573,38.6127635 6.99539193,34.7104443 C4.89801045,33.5655757 3.23216541,31.4512403 2.3048559,28.7570384 C1.41482591,26.1715707 1.30484389,23.290001 2.00312942,20.8511722 C3.20996107,16.6357309 6.55902845,14.3744594 11.1871844,14.6470755 C16.0933773,14.9358196 18.9499391,17.1888413 19.0242754,20.8285037 C19.0920023,24.1392134 16.5075364,28.0944505 12.6906927,28.4763954 C10.3731987,28.7092488 7.40316453,27.9506359 6.65653445,25.0520462 C6.21140806,23.3238178 6.82755982,20.9939463 9.23238595,19.9624943 C10.6783412,19.3421961 12.056421,19.4432752 13.1122781,20.2472994 C14.0438205,20.9566363 14.5981863,22.1614834 14.460356,23.1774019 C14.3932974,23.6720202 14.1286277,24.3356486 13.24944,24.6875671 C12.7168329,24.900725 12.0035465,25.0921805 11.6300087,24.7923623 C11.1038624,24.370283 11.1278491,23.0358169 11.2218648,22.4543896 C11.2912997,22.0361008 11.0089556,21.6406291 10.5910834,21.571063 C10.1736567,21.5011252 9.77761751,21.7837005 9.7078855,22.2023609 C9.66265994,22.4742338 9.3047914,24.8909887 10.6666821,25.9880677 C11.4302439,26.6034606 12.4910022,26.645453 13.8194008,26.1136732 C15.0233362,25.6317641 15.8111817,24.636879 15.9812417,23.3840193 C16.1932596,21.8215308 15.4137315,20.0697422 14.0417412,19.0249864 C12.5487038,17.8881447 10.5754141,17.7148982 8.62789333,18.5505839 C5.85443066,19.7401205 4.43275906,22.5713737 5.1704777,25.4354776 C5.78870879,27.8356585 8.16843437,30.4727062 12.8434496,30.0049184 C14.9813782,29.790943 16.9710055,28.6554391 18.445923,26.807774 C19.8313547,25.072039 20.6014516,22.8812998 20.5588252,20.7969909 C20.5245161,19.1207142 19.7539737,13.6127992 11.2773385,13.1137215 C5.86623832,12.7951739 1.94951226,15.4614305 0.527543609,20.4282011 C-1.17914552,26.3896338 1.39254731,33.4016939 6.26034671,36.0589574 C8.98940071,37.5486838 11.4340313,38.1095238 13.6177052,38.1095238 C17.7899668,38.1091522 21.0068478,36.0602952 23.4146444,34.5259751 C23.8565775,34.2445146 24.2740042,33.9784389 24.6724198,33.7391938 C25.035858,33.520982 25.1536375,33.0491808 24.9356786,32.6856679 Z" id="Path"></path>
                    </g>
                    <g id="open-virus-icon" transform="translate(82.656250, 0.000000)" fill-rule="nonzero">
                        <path d="M19.0469267,0 C8.54438286,0 0,8.54789772 0,19.0547619 C0,29.5616261 8.54438286,38.1095238 19.0469267,38.1095238 C29.5493671,38.1095238 38.09375,29.5616261 38.09375,19.0547619 C38.09375,8.54789772 29.5493671,0 19.0469267,0 Z M19.0469267,36.5584815 C9.3993793,36.5584815 1.55040456,28.7062779 1.55040456,19.0547619 C1.55040456,9.40324586 9.3993793,1.55104234 19.0469267,1.55104234 C28.6944741,1.55104234 36.5433454,9.40324586 36.5433454,19.0547619 C36.5433454,28.7062779 28.6944741,36.5584815 19.0469267,36.5584815 Z" id="Shape"></path>
                        <path d="M10.9211541,10.5548114 C12.233484,10.2954777 12.9374177,10.5951168 13.7526233,10.9421679 C14.43095,11.2309882 15.1765336,11.5484466 16.2406098,11.5483405 C16.6069227,11.5483405 17.0110804,11.5106868 17.4630583,11.4213784 C19.228086,11.0724181 20.0306424,10.2693852 20.7386896,9.56096405 C21.3715615,8.92753222 21.9182542,8.38065102 23.2304812,8.12110519 C23.6487279,8.03837296 23.922897,7.62163591 23.8427853,7.19004949 C23.7625708,6.75846306 23.3576932,6.47547643 22.9400636,6.55852686 C21.175036,6.90748713 20.3724796,7.71041395 19.6644323,8.41894119 C19.0314576,9.05226695 18.4848677,9.59925422 17.1726407,9.85880005 C15.8604137,10.1181337 15.15648,9.81849461 14.3411715,9.47144355 C13.4292971,9.0832385 12.3957641,8.64306065 10.6306336,8.99223306 C10.2122841,9.07496528 9.93821789,9.49170233 10.0183296,9.92328876 C10.0987497,10.3548752 10.5029074,10.6375436 10.9211541,10.5548114 Z" id="Path"></path>
                        <path d="M17.3914877,28.9155832 C15.6508994,28.7185639 14.8950059,28.0065939 14.0197332,27.1821129 C13.0752856,26.2925255 12.0047509,25.2843265 9.72889527,25.0267011 C9.29707592,24.9778963 8.90676154,25.2718252 8.855614,25.6831656 C8.80446647,26.0945061 9.11250459,26.4675427 9.54359027,26.5164475 C11.2840738,26.7134669 12.0400721,27.4254368 12.9152399,28.2498178 C13.8596875,29.1394052 14.9302222,30.1476043 17.2061827,30.4053296 C17.2376259,30.4089299 17.2688594,30.4106301 17.2997785,30.4106301 C17.6925035,30.4106301 18.0319848,30.1302026 18.0793592,29.7488651 C18.1305067,29.3374247 17.8225734,28.964388 17.3914877,28.9155832 L17.3914877,28.9155832 Z" id="Path"></path>
                        <path d="M29.2918413,20.4289712 C27.583725,20.3278234 26.8044712,19.6526974 25.9024196,18.8708716 C24.9289407,18.0273678 23.8257055,17.0713094 21.5919127,16.9389694 C21.1676466,16.9137329 20.8051887,17.2319143 20.7798105,17.6493255 C20.7544323,18.0667367 21.0767763,18.4253974 21.4999168,18.450432 C23.208033,18.5515798 23.9872869,19.2267058 24.8893384,20.0085316 C25.8628173,20.8520354 26.9660525,21.8080938 29.1998453,21.9404338 C29.215502,21.9413423 29.2310564,21.941847 29.2465085,21.941847 C29.6493873,21.941847 29.987388,21.6320441 30.0118452,21.2301786 C30.0373258,20.8127674 29.7149817,20.4540058 29.2918413,20.4289712 Z" id="Path"></path>
                        <path d="M12.3131313,18.0924002 C12.3131313,16.6066164 11.1048027,15.3977874 9.61963384,15.3977874 C8.13446498,15.3977874 6.92613636,16.6066164 6.92613636,18.0924002 C6.92613636,19.578184 8.13446498,20.787013 9.61963384,20.787013 C11.1048027,20.787013 12.3131313,19.578184 12.3131313,18.0924002 Z M8.46527778,18.0924002 C8.46527778,17.4556504 8.98314756,16.9375661 9.61963384,16.9375661 C10.2561201,16.9375661 10.7739899,17.4556504 10.7739899,18.0924002 C10.7739899,18.72915 10.2561201,19.2472342 9.61963384,19.2472342 C8.98314756,19.2472342 8.46527778,18.72915 8.46527778,18.0924002 Z" id="Shape"></path>
                        <path d="M26.9349747,15.0128427 C28.4202462,15.0128427 29.6284722,13.8040138 29.6284722,12.3182299 C29.6284722,10.8324461 28.4202462,9.62361712 26.9349747,9.62361712 C25.4497033,9.62361712 24.2414773,10.8324461 24.2414773,12.3182299 C24.2414773,13.8040138 25.4497033,15.0128427 26.9349747,15.0128427 Z M26.9349747,11.1633959 C27.571461,11.1633959 28.0893308,11.6814801 28.0893308,12.3182299 C28.0893308,12.9549798 27.571461,13.473064 26.9349747,13.473064 C26.2984885,13.473064 25.7806187,12.9549798 25.7806187,12.3182299 C25.7806187,11.6814801 26.2984885,11.1633959 26.9349747,11.1633959 Z" id="Shape"></path>
                        <path d="M21.5479798,22.7117364 C20.0627083,22.7117364 18.8544823,23.9205654 18.8544823,25.4063492 C18.8544823,26.892133 20.0627083,28.100962 21.5479798,28.100962 C23.0332513,28.100962 24.2414773,26.892133 24.2414773,25.4063492 C24.2414773,23.9205654 23.0331487,22.7117364 21.5479798,22.7117364 L21.5479798,22.7117364 Z M21.5479798,26.5611833 C20.9114935,26.5611833 20.3936237,26.043099 20.3936237,25.4063492 C20.3936237,24.7695994 20.9114935,24.2515152 21.5479798,24.2515152 C22.1844661,24.2515152 22.7023359,24.7695994 22.7023359,25.4063492 C22.7023359,26.043099 22.1844661,26.5611833 21.5479798,26.5611833 Z" id="Shape"></path>
                    </g>
                    <g id="open-virus-icon" transform="translate(171.781250, 0.000000)" fill-rule="nonzero">
                        <path d="M19.0469267,0 C8.54438286,0 0,8.54789772 0,19.0547619 C0,29.5616261 8.54438286,38.1095238 19.0469267,38.1095238 C29.5493671,38.1095238 38.09375,29.5616261 38.09375,19.0547619 C38.09375,8.54789772 29.5493671,0 19.0469267,0 Z M19.0469267,36.5584815 C9.3993793,36.5584815 1.55040456,28.7062779 1.55040456,19.0547619 C1.55040456,9.40324586 9.3993793,1.55104234 19.0469267,1.55104234 C28.6944741,1.55104234 36.5433454,9.40324586 36.5433454,19.0547619 C36.5433454,28.7062779 28.6944741,36.5584815 19.0469267,36.5584815 Z" id="Shape"></path>
                        <path d="M13.2298662,7.47525391 C14.5421961,7.21592021 15.2461298,7.51555935 16.0613354,7.86261041 C16.7396622,8.15143072 17.4852457,8.46888911 18.549322,8.46878307 C18.9156349,8.46878307 19.3197926,8.43112927 19.7717705,8.3418209 C21.5367981,7.99286063 22.3393545,7.18982774 23.0474017,6.48140657 C23.6802736,5.84797474 24.2269663,5.30109354 25.5391934,5.04154771 C25.95744,4.95881548 26.2316091,4.54207843 26.1514974,4.11049201 C26.0712829,3.67890558 25.6664053,3.39591896 25.2487757,3.47896938 C23.4837481,3.82792965 22.6811917,4.63085647 21.9731444,5.33938371 C21.3401697,5.97270947 20.7935798,6.51969674 19.4813528,6.77924257 C18.1691258,7.03857627 17.4651921,6.73893713 16.6498836,6.39188607 C15.7380092,6.00368102 14.7044762,5.56350318 12.9393457,5.91267558 C12.5209962,5.9954078 12.24693,6.41214485 12.3270417,6.84373128 C12.4074619,7.2753177 12.8116196,7.55798613 13.2298662,7.47525391 Z" id="Path"></path>
                        <path d="M29.5191965,28.4512764 C29.3013114,28.0877635 28.8309823,27.9693673 28.4677416,28.187802 C28.0525141,28.437378 27.627349,28.7086563 27.1771916,28.9959139 C23.4188597,31.3940881 18.7414502,34.378372 11.6033042,30.4760528 C9.50877461,29.3311842 7.84519471,27.2168488 6.91914611,24.5226468 C6.03032634,21.9371792 5.92049387,19.0556094 6.6178299,16.6167807 C7.82302057,12.4013394 11.167534,10.1400678 15.7893969,10.4126839 C20.6889185,10.701428 23.5415961,12.9544498 23.6158313,16.5941122 C23.6834662,19.9048219 21.1025145,23.860059 17.2908608,24.2420039 C14.976518,24.4748573 12.0105223,23.7162443 11.2649075,20.8176547 C10.8203863,19.0894263 11.4357003,16.7595548 13.8372564,15.7281028 C15.2812456,15.1078046 16.6574515,15.2088836 17.7118729,16.0129078 C18.6421486,16.7222447 19.1957606,17.9270918 19.0581178,18.9430104 C18.9911504,19.4376287 18.7268405,20.1012571 17.8488483,20.4531756 C17.3169655,20.6663334 16.6046489,20.857789 16.231619,20.5579708 C15.7061882,20.1358915 15.7301422,18.8014254 15.8240301,18.2199981 C15.8933706,17.8017093 15.6114104,17.4062376 15.1941064,17.3366714 C14.7772473,17.2667337 14.3817466,17.549309 14.3121094,17.9679694 C14.2669454,18.2398422 13.9095634,20.6565971 15.2696023,21.7536762 C16.0321259,22.369069 17.0914418,22.4110614 18.4180341,21.8792817 C19.6203324,21.3973726 20.4071067,20.4024874 20.5769354,19.1496278 C20.7886651,17.5871393 20.0101969,15.8353506 18.6400721,14.7905949 C17.1490649,13.6537531 15.1784584,13.4805066 13.2335858,14.3161923 C10.4638943,15.505729 9.04415585,18.3369822 9.78087138,21.201086 C10.3982618,23.6012669 12.7747516,26.2383146 17.44341,25.7705269 C19.5784315,25.5565515 21.5653534,24.4210476 23.0382653,22.5733825 C24.4218132,20.8376475 25.190863,18.6469083 25.1482945,16.5625993 C25.1140322,14.8863226 24.3445375,9.37840767 15.8794283,8.87932998 C10.4756859,8.56078241 6.56428565,11.227039 5.14425052,16.1938095 C3.43988206,22.1552423 6.00807803,29.1673024 10.8692584,31.8245659 C13.5946016,33.3142923 16.0359081,33.8751323 18.2166127,33.8751323 C22.3832011,33.8747606 25.5957079,31.8259037 28.0002306,30.2915835 C28.4415628,30.010123 28.8584218,29.7440474 29.2562957,29.5048022 C29.6192397,29.2865905 29.7368591,28.8147893 29.5191965,28.4512764 Z" id="Path"></path>
                        <path d="M32.7067551,12.3182299 C32.7067551,10.8324461 31.4984264,9.62361712 30.0132576,9.62361712 C28.5280887,9.62361712 27.3197601,10.8324461 27.3197601,12.3182299 C27.3197601,13.8040138 28.5280887,15.0128427 30.0132576,15.0128427 C31.4984264,15.0128427 32.7067551,13.8040138 32.7067551,12.3182299 Z M28.8589015,12.3182299 C28.8589015,11.6814801 29.3767713,11.1633959 30.0132576,11.1633959 C30.6497439,11.1633959 31.1676136,11.6814801 31.1676136,12.3182299 C31.1676136,12.9549798 30.6497439,13.473064 30.0132576,13.473064 C29.3767713,13.473064 28.8589015,12.9549798 28.8589015,12.3182299 Z" id="Shape"></path>
                        <path d="M19.624053,26.1762386 C18.1387816,26.1762386 16.9305556,27.3850675 16.9305556,28.8708514 C16.9305556,30.3566352 18.1387816,31.5654642 19.624053,31.5654642 C21.1093245,31.5654642 22.3175505,30.3566352 22.3175505,28.8708514 C22.3175505,27.3850675 21.1092219,26.1762386 19.624053,26.1762386 L19.624053,26.1762386 Z M19.624053,30.0256854 C18.9875668,30.0256854 18.469697,29.5076012 18.469697,28.8708514 C18.469697,28.2341015 18.9875668,27.7160173 19.624053,27.7160173 C20.2605393,27.7160173 20.7784091,28.2341015 20.7784091,28.8708514 C20.7784091,29.5076012 20.2605393,30.0256854 19.624053,30.0256854 Z" id="Shape"></path>
                    </g>
                </g>
            </g>
        </g>
    </g>
</svg>