<svg width="512" height="277" viewBox="0 0 512 277" fill="none" xmlns="http://www.w3.org/2000/svg">
<path d="M86.0221 74.1079L150.472 113.019H183.532L146.571 91.1954H156.508C160.409 91.1954 164.03 90.4525 167.466 88.9666C170.903 87.4808 173.874 85.5306 176.382 83.0231C178.889 80.5157 180.839 77.544 182.325 74.1079C183.811 70.6718 184.554 67.05 184.554 63.1496C184.554 59.2492 183.811 55.6274 182.325 52.1913C180.839 48.7552 178.889 45.7834 176.382 43.276C173.874 40.6758 170.903 38.7255 167.466 37.2397C164.03 35.7538 160.409 35.0109 156.508 35.0109L69.1203 35.1037V52.1913H156.508C159.573 52.1913 162.08 53.2128 164.216 55.3488C166.352 57.4847 167.374 60.085 167.374 63.0567C167.374 66.1213 166.352 68.6288 164.216 70.7647C162.08 72.9006 159.48 73.9222 156.508 73.9222H105.153" fill="#C4162D"/>
<path d="M429.539 52.2869C428.053 48.8508 426.103 45.8791 423.595 43.3717C421.088 40.8643 418.116 38.8212 414.773 37.3353C411.337 35.8494 407.715 35.1065 403.814 35.1065L316.427 35.2923V52.2869H400.75C404.65 52.2869 407.901 53.3085 410.594 55.4444C413.287 57.5803 414.68 60.1806 414.68 63.1524V84.9761C414.68 88.0407 413.287 90.5482 410.594 92.6841C407.901 94.82 404.557 95.8416 400.75 95.8416H316.427V112.836H403.722C407.622 112.836 411.244 112.093 414.68 110.607C418.116 109.122 420.995 107.171 423.502 104.664C426.01 102.157 427.96 99.1848 429.446 95.8416C430.932 92.4055 431.674 88.7837 431.674 84.8833V63.0595C431.674 59.3448 430.932 55.723 429.539 52.2869Z" fill="#C4162D"/>
<path d="M307.602 95.9304H192.261V112.925H307.602V95.9304Z" fill="#C4162D"/>
<path d="M192.261 35.1065V52.2869H307.602V35.2923L192.261 35.1065Z" fill="#C4162D"/>
<path d="M307.602 65.4717H192.261V82.6521H307.602V65.4717Z" fill="#C4162D"/>
<path d="M439.005 54.7916H459.993V129.828H52.3064V18.2948H452.006L470.301 0H34.1973V147.752H477.823V15.7874L439.005 54.7916Z" fill="#C4162D"/>
<path d="M65.8666 220.001C58.4372 224.087 47.6646 228.916 38.8423 228.916C32.9916 228.916 30.7628 224.459 29.5556 219.444C26.1195 222.044 23.1477 224.737 19.8974 226.873C17.4828 228.638 9.21767 233.745 6.52453 233.745C5.13152 233.745 3.27418 233.095 2.25264 232.352C0.209567 230.773 -0.533369 228.359 0.395301 225.48C3.36705 217.215 8.8462 211.921 17.1114 209.135C18.1329 208.764 18.9687 208.578 19.8974 208.578C22.3119 208.578 24.5407 209.786 26.3981 211.643C27.0481 212.293 28.1625 213.036 28.9983 213.036C32.063 213.036 34.849 215.079 34.4775 218.236C33.8274 223.437 34.849 225.109 37.7278 225.109C38.9351 225.109 40.3281 224.923 42.1855 224.459C48.8719 222.694 55.2797 220.001 61.7804 217.586C62.6162 217.215 63.452 216.379 64.3807 216.565C65.2165 216.565 66.238 217.215 66.981 217.958C67.0738 218.144 66.4238 219.722 65.8666 220.001ZM24.4479 214.522C23.6121 213.872 22.5905 213.314 21.569 213.314C15.3469 214.15 7.4532 221.951 5.87446 228.452C6.43167 228.266 7.08173 228.266 7.4532 228.08C12.9324 224.273 18.5044 220.465 23.9835 216.565C24.4479 216.286 24.5407 214.707 24.4479 214.522Z" fill="#C4162D"/>
<path d="M92.052 203.567C94.2808 203.567 95.6738 204.96 96.6953 207.561H95.3023C88.4301 207.561 83.7868 212.018 78.9577 215.826C71.8998 221.119 67.8137 228.734 64.2847 236.442C63.7275 237.464 63.2632 239.228 62.2417 239.228C62.0559 239.228 61.6844 239.043 61.4058 238.857C60.0128 238.3 58.4341 236.257 58.6198 235.049C60.6629 225.577 62.8917 216.29 65.1205 206.818C69.5781 207.468 70.7854 209.232 69.3924 212.668C68.7423 214.526 68.1851 216.476 67.9994 218.519C70.7854 216.29 73.2 213.69 76.0788 211.833C79.1434 209.697 88.6159 203.567 92.052 203.567Z" fill="#C4162D"/>
<path d="M135.887 191.77C134.865 192.327 134.029 193.163 132.915 193.349C129.107 193.999 125.207 194.37 121.399 195.206C120.192 195.578 118.799 196.228 118.149 197.249C108.491 214.43 99.7614 231.981 97.3468 251.948C96.7896 255.941 96.7896 259.842 97.1611 263.835C97.1611 266.064 98.3684 268.107 99.2042 270.336C99.0184 270.521 98.8327 270.707 98.647 270.893C93.8179 269.035 92.4249 264.392 92.2391 259.377C91.8677 247.49 94.0965 235.789 98.4612 224.831C101.897 215.544 106.169 206.629 110.72 197.806C106.726 198.642 103.476 199.571 100.226 200.221C99.3899 200.407 98.647 200.592 98.1826 200.592C96.6039 200.592 95.9538 199.757 94.7465 197.342C95.5823 196.971 96.511 196.506 97.5326 196.135C102.362 194.927 107.191 193.72 112.02 192.327C113.413 191.77 114.992 190.934 115.642 189.727C118.892 184.898 121.678 180.069 124.557 175.24C125.207 174.032 125.764 173.011 126.971 173.011C127.343 173.011 127.807 173.197 128.364 173.568C130.222 174.775 130.036 176.354 129.2 178.026C126.971 182.019 124.743 186.105 122.7 190.284C125.486 189.913 127.993 189.727 130.408 189.448C130.965 189.448 131.615 189.263 132.079 189.263C132.451 189.263 132.729 189.263 132.915 189.448C134.029 189.82 134.865 190.841 135.887 191.77Z" fill="#C4162D"/>
<path d="M269.149 217.586C268.592 218.236 268.313 219.443 267.57 219.814C260.884 222.601 254.104 225.294 247.232 227.894C243.982 229.101 240.36 230.123 236.924 230.123C229.402 230.123 224.666 225.665 223.644 217.4C222.994 212.385 222.994 210.156 221.229 210.156C220.208 210.156 218.258 211.178 215.007 213.128C208.135 217.214 201.727 222.229 195.412 226.872C193.648 228.265 191.976 230.123 189.933 230.123C189.376 230.123 188.912 229.937 188.262 229.566C185.197 227.987 185.197 224.736 185.476 221.672C185.847 219.072 186.033 216.471 186.033 213.964C186.033 211.178 185.661 210.156 184.454 210.156C178.789 210.156 165.881 221.486 162.073 225.665C159.659 228.08 157.43 230.494 154.644 232.537C154.272 232.909 153.437 233.187 152.601 233.187C152.044 233.187 151.393 233.002 151.208 232.63C150.372 231.794 149.629 229.566 150.186 228.637C154.458 221.765 159.101 214.893 163.93 208.206C164.116 208.02 164.488 207.835 165.138 207.835C165.788 207.835 166.716 208.02 167.181 208.392C167.831 208.949 167.831 210.621 167.738 211.456C167.367 212.478 166.345 213.221 165.974 214.521C166.531 214.15 167.181 213.871 167.831 213.5C171.638 211.271 175.26 208.856 178.975 206.999C180.368 206.349 181.575 206.163 182.783 206.163C186.404 206.163 189.005 208.763 189.655 213.035C190.212 215.45 190.026 218.05 190.026 220.65C190.026 221.858 189.84 223.065 189.655 224.736C194.669 221.115 198.756 217.679 203.213 214.8C206.464 212.571 215.75 206.535 219.744 206.535C222.994 206.535 225.408 208.949 226.43 212.942C227.08 215.357 227.266 217.957 227.637 220.372C228.473 224.458 229.866 226.222 234.045 226.222C236.924 226.222 240.081 225.851 242.96 225.015C250.39 222.601 257.633 219.722 264.97 216.936C265.156 216.936 265.527 216.564 265.62 216.564C267.106 216.936 268.127 217.307 269.149 217.586Z" fill="#C4162D"/>
<path d="M322.835 217.956C322.278 218.606 321.999 219.535 321.256 219.813C311.412 224.828 300.268 226.5 289.403 226.5C288.381 226.5 287.174 226.314 286.153 226.128C285.131 225.757 284.295 225.571 283.552 225.571C281.138 225.571 279.466 226.778 277.702 229.007C275.287 231.607 272.408 233 269.808 233C268.415 233 267.022 232.629 265.815 231.793C261.821 229.007 261.171 224.735 263.772 219.256C264.143 218.42 264.422 217.492 264.979 216.656C266.836 214.427 267.765 212.012 267.858 209.041C267.858 203.562 272.501 198.732 276.494 198.918C281.509 199.104 286.988 205.419 286.338 210.805C285.781 214.613 284.481 218.42 283.367 222.506C285.781 222.692 288.196 222.878 290.796 222.878C299.897 222.878 308.905 221.113 317.634 217.585C318.285 217.213 319.213 216.563 319.863 216.563C320.978 216.749 321.999 217.492 322.835 217.956ZM276.866 223.992C274.266 221.578 272.223 219.906 269.436 217.492C268.415 220.742 267.208 223.714 266.558 226.778C266.186 228.543 266.929 229.564 268.136 229.564C268.694 229.564 268.972 229.379 269.529 229.193C272.037 227.8 274.266 225.757 276.866 223.992ZM282.066 206.069C281.231 204.026 280.023 203.004 278.445 203.004C277.423 203.004 276.402 203.654 275.194 204.862C274.358 205.883 273.616 207.091 272.965 208.298C273.987 209.134 272.594 214.706 272.965 215.356C273.987 217.213 275.844 218.606 277.423 220.371C277.609 220.556 278.445 220.185 278.816 219.813C280.859 218.142 283.088 208.669 282.066 206.069Z" fill="#C4162D"/>
<path d="M382.543 216.378C383.565 216.378 384.586 216.935 385.515 217.028C384.958 217.864 384.493 219.071 383.75 219.443C370.006 223.715 356.076 227.708 341.403 227.894C340.382 227.894 339.36 228.544 338.431 229.287C334.81 232.073 331.559 235.137 327.752 237.552C326.359 238.388 324.873 238.759 323.665 238.759C320.415 238.759 318.001 236.344 317.815 232.351C317.629 225.943 318.651 219.443 319.394 213.128C319.394 212.571 320.787 211.549 320.972 211.735C321.808 212.385 323.387 213.313 323.387 214.149C323.758 216.378 323.387 218.607 323.201 220.836C323.015 224.922 322.644 229.101 322.365 233.187C322.737 233.373 323.015 233.744 323.387 233.837C327.009 231.237 330.445 228.544 334.067 225.943C329.052 219.536 330.259 216.285 333.509 211.828C334.717 210.063 336.295 209.413 337.967 209.413C338.989 209.413 340.01 209.785 341.217 210.249C344.468 212.013 346.046 214.706 345.211 217.864C344.561 219.907 343.446 221.857 342.425 224.365H344.096C345.861 224.365 347.161 224.365 348.74 223.993C359.884 221.393 370.935 218.793 382.079 216.285L382.543 216.378ZM341.403 214.149C341.032 213.964 340.753 213.592 340.196 213.499C336.945 213.871 335.738 216.378 334.995 219.164C334.624 220.371 334.995 221.764 335.181 223.157C335.552 223.157 336.017 223.157 336.388 223.343C338.153 220.186 339.639 217.307 341.403 214.149Z" fill="#C4162D"/>
<path d="M457.212 217.587C456.655 218.422 456.191 219.815 455.355 220.187C448.111 222.601 441.053 225.387 433.717 227.059C424.059 229.288 406.878 234.303 393.784 234.303C390.534 234.303 387.376 233.931 384.869 233.281C378.647 231.702 376.418 226.873 377.161 220.558C377.347 217.958 379.018 216.936 380.225 215.543C384.312 210.343 392.948 203.657 399.82 203.657C401.863 203.657 403.628 204.864 405.021 206.907C406.6 209.321 405.578 211.55 403.999 213.315C398.52 218.794 392.67 222.416 384.59 222.416C382.826 222.416 381.711 222.416 381.154 224.459C380.783 226.502 381.154 228.081 383.011 228.638C386.447 229.659 390.255 230.031 394.155 230.031C405.857 230.031 418.579 226.223 427.216 224.366C436.131 222.137 444.954 219.072 453.869 216.472C454.798 216.286 456.191 217.122 457.212 217.587ZM384.962 218.794C391.834 217.587 397.22 214.15 401.956 208.3C396.291 208.3 387.283 213.5 384.962 218.794Z" fill="#C4162D"/>
<path d="M508.747 216.566C509.582 216.566 510.79 217.216 511.997 217.587C511.161 218.423 510.418 219.816 509.582 220.187C496.488 224.181 483.394 227.895 470.393 231.703C469.371 231.889 468.35 232.353 467.142 232.725C468.535 238.389 467.699 240.433 462.313 242.661C458.32 244.426 454.234 245.076 450.24 245.076C448.012 245.076 445.969 244.89 443.833 244.519C442.44 244.333 440.768 242.476 440.025 240.897C439.654 240.247 441.047 238.111 442.068 237.647C446.711 234.582 452.191 232.446 457.577 230.589C455.72 229.567 454.141 229.01 452.748 228.174C447.733 225.109 447.454 221.116 451.726 217.494C453.769 215.637 456.37 214.244 458.784 212.665C459.434 212.108 460.177 212.015 460.827 212.015C461.663 212.015 462.685 212.572 463.428 213.594C464.821 215.451 464.263 216.844 462.035 217.216C458.97 217.866 454.977 221.023 453.212 224.459C457.02 225.852 460.084 228.453 464.356 228.453C465.378 228.453 466.585 228.267 467.978 227.803C481.258 223.531 494.631 220.188 508.097 216.659L508.747 216.566ZM448.197 239.69C449.219 239.875 450.24 239.875 451.076 239.875C456.927 239.875 461.199 237.646 462.592 234.025L448.197 239.69Z" fill="#C4162D"/>
</svg>
