<svg id="Layer_1" data-name="Layer 1" xmlns="http://www.w3.org/2000/svg" viewBox="0 0 370 207.3"><defs><style>.cls-1{fill:#3373bb;}.cls-2{fill:#0bb2e4;}</style></defs><title>Logo_Lier</title><path class="cls-1" d="M106.9,211.1,93.7,228.7H27.6V158.2h22v52.9Z" transform="translate(-27.6 -21.5)"/><path class="cls-1" d="M142.1,228.8h-22V158.4h22Z" transform="translate(-27.6 -21.5)"/><path class="cls-1" d="M234.6,211.1l-13.2,17.6H155.3V158.2h79.3l-13.2,17.6H177.3v8.8h57.3l-13.2,17.6H177.3V211h57.3Z" transform="translate(-27.6 -21.5)"/><path class="cls-1" d="M322.7,205.2c10.3-2.9,16.3-11.5,16.3-21.8,0-20.1-17.9-25.1-33.9-25.1H261l-13.2,17.6h56.8c7.5,0,12,3.4,12,8.9,0,4.8-5.3,7.9-12,7.9H247.8v36.1h22V211.2h26.4l13.2,17.6h30.8Z" transform="translate(-27.6 -21.5)"/><polygon class="cls-1" points="249.1 31 127.7 123.6 161.2 123.6 249.1 57.5 348 132.4 348 189.6 312.8 189.6 326 207.3 348 207.3 370 207.3 370 148.6 370 132.4 370 123.6 249.1 31"/><path class="cls-2" d="M216.3,21.5a61.2,61.2,0,0,0-61.2,61.2,5.1,5.1,0,0,0,10.2,0,51,51,0,0,1,51-51,5.1,5.1,0,0,0,0-10.2Z" transform="translate(-27.6 -21.5)"/><path class="cls-2" d="M216.3,41.9a40.84,40.84,0,0,0-40.8,40.8,5.1,5.1,0,1,0,10.2,0,30.6,30.6,0,0,1,30.6-30.6,5.1,5.1,0,0,0,0-10.2Z" transform="translate(-27.6 -21.5)"/><path class="cls-2" d="M216.3,62.3a20.36,20.36,0,0,0-20.4,20.4,5.1,5.1,0,0,0,10.2,0v-.1a10.16,10.16,0,0,1,10.2-10.1h0a5.1,5.1,0,0,0,0-10.2Z" transform="translate(-27.6 -21.5)"/></svg>